<?xml version="1.0" encoding="UTF-8"?>
<!-- Generator: https://ezgif.com/png-to-svg -->
<svg version="1.1" xmlns="http://www.w3.org/2000/svg" width="960" height="960">
<path d="M0 0 C1.25 0.18 2.5 0.35 3.79 0.54 C44.59 6.38 85.35 18.24 123 35 C124.08 35.48 125.15 35.95 126.26 36.44 C142.72 43.75 158.5 51.84 174 61 C175.41 61.82 176.82 62.64 178.23 63.46 C197.13 74.55 214.93 87.3 232 101 C232.97 101.77 233.94 102.55 234.94 103.34 C240.54 107.86 245.92 112.56 251.2 117.45 C253.31 119.37 255.44 121.23 257.61 123.09 C262.64 127.48 267.34 132.19 272.05 136.92 C273.56 138.43 275.08 139.95 276.6 141.46 C281.94 146.8 287.11 152.24 292 158 C292.95 159.08 293.9 160.17 294.85 161.25 C302.65 170.19 309.91 179.48 317 189 C317.54 189.72 318.08 190.43 318.63 191.17 C327.49 203.02 335.43 215.3 343 228 C343.49 228.82 343.99 229.65 344.49 230.49 C388.68 304.59 411.56 389.25 411.31 475.44 C411.31 476.77 411.31 478.11 411.31 479.44 C411.27 499.14 410.77 518.48 408 538 C407.75 539.85 407.75 539.85 407.5 541.75 C403.28 572.52 395.96 602.59 386 632 C385.63 633.1 385.25 634.21 384.87 635.34 C367.91 684.7 342.46 731.15 310 772 C309.49 772.64 308.99 773.28 308.46 773.93 C302.33 781.63 296.12 789.17 289.41 796.38 C287.55 798.41 285.75 800.46 283.96 802.56 C279.42 807.76 274.54 812.61 269.66 817.47 C268.07 819.06 266.48 820.65 264.89 822.24 C259.43 827.71 253.89 833 248 838 C246.9 838.96 245.81 839.92 244.72 840.89 C236.8 847.81 228.6 854.25 220.11 860.45 C217.95 862.03 215.8 863.63 213.65 865.22 C196.56 877.82 178.56 888.72 160 899 C159.23 899.43 158.46 899.86 157.66 900.3 C107.04 928.31 50.19 945.31 -7 953 C-8.15 953.16 -9.31 953.33 -10.49 953.5 C-49.56 958.85 -91.99 958.65 -131 953 C-132.4 952.8 -133.8 952.61 -135.21 952.41 C-181.2 945.91 -225.55 932.82 -268 914 C-269.44 913.36 -269.44 913.36 -270.91 912.71 C-285.1 906.35 -298.58 898.83 -312 891 C-312.87 890.5 -313.74 889.99 -314.64 889.48 C-332.32 879.25 -348.99 867.68 -365 855 C-366.25 854.03 -366.25 854.03 -367.52 853.03 C-383.72 840.26 -398.77 826.31 -413.38 811.75 C-413.85 811.28 -414.32 810.81 -414.81 810.32 C-420.43 804.72 -425.86 799.04 -431 793 C-431.96 791.9 -432.92 790.81 -433.89 789.72 C-440.81 781.8 -447.25 773.6 -453.45 765.11 C-455.03 762.95 -456.63 760.8 -458.22 758.65 C-470.82 741.56 -481.7 723.55 -492 705 C-492.42 704.25 -492.84 703.51 -493.27 702.74 C-521.53 652.29 -538.11 595.01 -546 538 C-546.25 536.33 -546.25 536.33 -546.5 534.62 C-552.44 493.29 -551.28 448.21 -545 407 C-544.81 405.75 -544.63 404.5 -544.43 403.21 C-543.18 395.09 -541.68 387.04 -540 379 C-539.62 377.2 -539.62 377.2 -539.24 375.36 C-531.55 339.35 -519.94 304.22 -504 271 C-503.31 269.55 -503.31 269.55 -502.6 268.06 C-491.78 245.42 -479.4 223.57 -465 203 C-464.6 202.43 -464.2 201.85 -463.79 201.26 C-457.52 192.24 -450.87 183.57 -444 175 C-443.24 174.04 -442.48 173.08 -441.69 172.1 C-436.94 166.19 -431.94 160.57 -426.77 155.02 C-424.74 152.83 -422.79 150.59 -420.85 148.33 C-416.61 143.47 -412.08 138.92 -407.51 134.38 C-406.06 132.94 -404.62 131.49 -403.18 130.04 C-397.96 124.82 -392.63 119.79 -387 115 C-385.92 114.05 -384.83 113.1 -383.75 112.15 C-374.81 104.35 -365.52 97.08 -356 90 C-355.27 89.46 -354.55 88.91 -353.8 88.35 C-336.03 75.14 -317.33 63.76 -298 53 C-297.3 52.61 -296.61 52.21 -295.89 51.81 C-245.43 23.5 -188.09 6.8 -131 -1 C-129.34 -1.25 -129.34 -1.25 -127.64 -1.5 C-86.23 -7.45 -41.28 -6.17 0 0 Z " fill="#FBC117" transform="translate(549,4)"/>
<path d="M0 0 C0.66 0 1.32 0 2 0 C2.41 0.71 2.81 1.42 3.23 2.16 C12.49 18.39 21.79 34.6 31.14 50.78 C34.26 56.19 37.38 61.59 40.5 67 C41.75 69.17 43 71.33 44.25 73.5 C81.75 138.5 81.75 138.5 83.63 141.75 C84.87 143.92 86.12 146.08 87.37 148.25 C90.51 153.69 93.65 159.13 96.79 164.57 C102.81 175.02 108.85 185.46 114.94 195.88 C120.36 205.14 125.7 214.46 131.02 223.79 C136.22 232.91 141.48 242 146.78 251.07 C152.94 261.59 159.02 272.15 165.11 282.72 C166.99 285.98 168.87 289.24 170.75 292.51 C171.68 294.12 171.68 294.12 172.63 295.76 C173.87 297.91 175.11 300.06 176.35 302.2 C179.28 307.27 182.19 312.33 185.09 317.41 C186.46 319.81 187.83 322.2 189.2 324.59 C190.16 326.27 191.12 327.95 192.08 329.64 C192.66 330.66 193.25 331.68 193.86 332.74 C194.37 333.64 194.88 334.53 195.41 335.46 C196.98 338.07 196.98 338.07 199.04 340.54 C200.86 342.83 202.15 344.95 203.45 347.55 C203.88 348.41 204.31 349.26 204.75 350.14 C205.43 351.5 205.43 351.5 206.12 352.88 C214.93 370.02 225.85 385.58 238.94 399.75 C240.75 401.73 242.47 403.75 244.19 405.81 C282.21 449.28 343.11 475.15 400 479 C462.15 481.86 526.37 463.84 573.18 421.46 C575.48 419.33 577.73 417.16 580 415 C581.35 413.85 582.7 412.7 584.06 411.56 C596.55 400.64 606.98 386.86 616 373 C616.33 373.66 616.66 374.32 617 375 C615.96 377.23 615.96 377.23 614.31 380.04 C613.4 381.6 613.4 381.6 612.47 383.2 C611.8 384.33 611.13 385.46 610.44 386.62 C609.75 387.81 609.06 388.99 608.37 390.17 C606.94 392.6 605.52 395.03 604.09 397.46 C601.61 401.66 599.15 405.87 596.7 410.09 C595.56 412.05 594.41 414 593.27 415.96 C587.1 426.52 581 437.12 574.89 447.72 C571.76 453.15 568.63 458.57 565.5 464 C564.25 466.17 563 468.33 561.75 470.5 C524.25 535.5 486.75 600.5 449.25 665.5 C448.63 666.57 448.01 667.65 447.37 668.75 C446.13 670.91 444.89 673.06 443.64 675.21 C440.74 680.24 437.84 685.27 434.96 690.31 C433.94 692.08 432.92 693.86 431.91 695.63 C430.63 697.85 429.36 700.07 428.1 702.29 C426.95 704.28 425.79 706.27 424.61 708.24 C422.98 710.95 422.98 710.95 421.71 713.72 C420.34 716.32 419.24 718.09 417 720 C412.51 721.21 408.24 720.99 403.62 720.75 C402.29 720.71 400.95 720.67 399.61 720.64 C395.4 720.5 391.2 720.26 387 720 C385.69 719.92 384.39 719.84 383.04 719.76 C325.92 716 270.25 701.17 218 678 C216.56 677.36 216.56 677.36 215.09 676.71 C200.9 670.35 187.42 662.83 174 655 C173.13 654.5 172.26 653.99 171.36 653.48 C153.68 643.25 137.01 631.68 121 619 C119.75 618.03 119.75 618.03 118.48 617.03 C102.28 604.26 87.23 590.31 72.62 575.75 C72.15 575.28 71.68 574.81 71.19 574.32 C65.57 568.72 60.14 563.04 55 557 C54.04 555.9 53.08 554.81 52.11 553.72 C45.19 545.8 38.75 537.6 32.55 529.11 C30.97 526.95 29.37 524.8 27.78 522.65 C15.18 505.56 4.3 487.55 -6 469 C-6.42 468.25 -6.84 467.51 -7.27 466.74 C-35.53 416.29 -52.11 359.01 -60 302 C-60.25 300.33 -60.25 300.33 -60.5 298.62 C-66.44 257.29 -65.28 212.21 -59 171 C-58.81 169.75 -58.63 168.5 -58.43 167.21 C-57.18 159.09 -55.68 151.04 -54 143 C-53.62 141.2 -53.62 141.2 -53.24 139.36 C-42.8 90.48 -24.73 43.46 0 0 Z " fill="#279947" transform="translate(63,240)"/>
<path d="M0 0 C1.25 0.18 2.5 0.35 3.79 0.54 C44.59 6.38 85.35 18.24 123 35 C124.08 35.48 125.15 35.95 126.26 36.44 C142.72 43.75 158.5 51.84 174 61 C175.41 61.82 176.82 62.64 178.23 63.46 C197.13 74.55 214.93 87.3 232 101 C232.97 101.77 233.94 102.55 234.94 103.34 C240.54 107.86 245.92 112.56 251.2 117.45 C253.31 119.37 255.44 121.23 257.61 123.09 C262.64 127.48 267.34 132.19 272.05 136.92 C273.56 138.43 275.08 139.95 276.6 141.46 C281.94 146.8 287.11 152.24 292 158 C292.95 159.08 293.9 160.17 294.85 161.25 C302.65 170.19 309.91 179.48 317 189 C317.54 189.72 318.08 190.43 318.63 191.17 C328.33 204.14 337.86 217.63 345.09 232.16 C345.45 232.88 345.81 233.6 346.18 234.34 C346.45 234.89 346.72 235.44 347 236 C346.09 236 345.19 236 344.25 236 C290.37 236.04 236.49 236.09 182.61 236.18 C176.13 236.19 169.65 236.2 163.17 236.21 C161.88 236.21 160.59 236.21 159.26 236.21 C138.42 236.24 117.58 236.26 96.73 236.27 C75.32 236.29 53.9 236.31 32.49 236.35 C19.29 236.38 6.1 236.39 -7.09 236.39 C-16.16 236.39 -25.24 236.41 -34.31 236.43 C-39.52 236.45 -44.74 236.46 -49.96 236.45 C-116.38 236.34 -177.28 252.1 -228 297 C-228.9 297.79 -229.81 298.59 -230.74 299.41 C-239.68 307.34 -247.58 315.62 -255 325 C-255.78 325.97 -256.56 326.93 -257.37 327.93 C-264.68 337.13 -270.96 346.92 -277 357 C-277.38 357.63 -277.76 358.26 -278.15 358.91 C-293 384.06 -301.63 413.29 -306 442 C-306.12 442.7 -306.23 443.4 -306.35 444.13 C-310.23 467.45 -308.53 491.75 -305 515 C-304.89 515.72 -304.79 516.43 -304.68 517.17 C-304 521.5 -303.07 525.75 -302 530 C-301.77 530.9 -301.55 531.8 -301.31 532.73 C-298.12 545.15 -294.49 557.19 -289.4 568.98 C-288.55 570.97 -287.77 572.98 -287 575 C-287.33 575.66 -287.66 576.32 -288 577 C-297.09 561.46 -306.12 545.88 -315.11 530.28 C-318.24 524.85 -321.37 519.43 -324.5 514 C-325.75 511.83 -327 509.67 -328.25 507.5 C-328.87 506.43 -329.49 505.36 -330.12 504.25 C-365.75 442.5 -365.75 442.5 -367.63 439.25 C-368.87 437.08 -370.12 434.92 -371.37 432.75 C-374.51 427.31 -377.65 421.87 -380.79 416.43 C-386.81 405.98 -392.85 395.54 -398.94 385.12 C-404.36 375.85 -409.7 366.54 -415.02 357.21 C-419.63 349.11 -424.29 341.04 -429 333 C-434.06 324.37 -439.05 315.69 -444 307 C-448.98 298.27 -453.99 289.55 -459.06 280.88 C-463.77 272.83 -468.46 264.78 -473.13 256.72 C-474.1 255.05 -475.06 253.39 -476.03 251.73 C-477.19 249.72 -478.34 247.7 -479.47 245.68 C-480.42 244.01 -481.41 242.37 -482.46 240.76 C-484.04 238.18 -485.26 236.08 -484.53 233.03 C-483.47 230.85 -482.25 228.93 -480.88 226.94 C-480.17 225.84 -480.17 225.84 -479.45 224.71 C-478 222.45 -476.5 220.23 -475 218 C-474.15 216.69 -473.29 215.37 -472.45 214.05 C-470.02 210.33 -467.53 206.65 -465 203 C-464.39 202.12 -464.39 202.12 -463.77 201.22 C-457.51 192.21 -450.86 183.55 -444 175 C-443.24 174.04 -442.48 173.08 -441.69 172.1 C-436.94 166.19 -431.94 160.57 -426.77 155.02 C-424.74 152.83 -422.79 150.59 -420.85 148.33 C-416.61 143.47 -412.08 138.92 -407.51 134.38 C-406.06 132.94 -404.62 131.49 -403.18 130.04 C-397.96 124.82 -392.63 119.79 -387 115 C-385.92 114.05 -384.83 113.1 -383.75 112.15 C-374.81 104.35 -365.52 97.08 -356 90 C-355.27 89.46 -354.55 88.91 -353.8 88.35 C-336.03 75.14 -317.33 63.76 -298 53 C-297.3 52.61 -296.61 52.21 -295.89 51.81 C-245.43 23.5 -188.09 6.8 -131 -1 C-129.34 -1.25 -129.34 -1.25 -127.64 -1.5 C-86.23 -7.45 -41.28 -6.17 0 0 Z " fill="#E0382B" transform="translate(549,4)"/>
<path d="M0 0 C1.27 0.16 2.54 0.32 3.85 0.48 C37.36 5.05 70.04 21.49 95 44 C96.37 45.17 97.75 46.33 99.12 47.5 C134.08 78.5 157.67 124.2 161 171 C162.47 209.29 156.65 245.15 138 279 C137.68 279.6 137.35 280.21 137.02 280.83 C132.4 289.46 127.13 297.36 121 305 C120.38 305.78 120.38 305.78 119.74 306.57 C95.85 336.15 65.84 356.55 30 369 C29.29 369.25 28.58 369.51 27.85 369.77 C6.78 377.13 -15.83 379.02 -38 378 C-38.95 377.96 -39.9 377.92 -40.87 377.88 C-61.87 376.91 -82.71 372.45 -102 364 C-102.74 363.68 -103.49 363.35 -104.25 363.02 C-126.61 353.18 -145.37 339.8 -163 323 C-163.78 322.27 -164.56 321.55 -165.36 320.8 C-186.43 300.59 -200.53 274.31 -210 247 C-210.25 246.28 -210.51 245.57 -210.77 244.83 C-226.13 200.48 -221.5 148.59 -201.32 106.62 C-177.66 58.95 -137.5 23.4 -86.98 6.32 C-78.48 3.59 -69.76 1.65 -61 0 C-59.95 -0.21 -58.89 -0.42 -57.8 -0.63 C-38.97 -3.75 -18.82 -3.03 0 0 Z " fill="#1A73E8" transform="translate(509,292)"/>
<path d="M0 0 C0.75 0.09 1.51 0.17 2.28 0.26 C44.95 5.19 87.17 24.56 120 52 C120.59 52.48 121.17 52.97 121.78 53.47 C133.7 63.35 144.37 73.82 154 86 C154.65 86.79 155.31 87.58 155.98 88.39 C165.82 100.29 173.71 113.42 181 127 C181.34 127.61 181.67 128.23 182.02 128.86 C211.02 181.82 215.2 246.51 199 304 C198.73 304.98 198.45 305.95 198.17 306.96 C183.25 358.59 149.99 402.4 107 434 C106.11 434.66 106.11 434.66 105.2 435.33 C74.76 457.6 38.02 470.4 1 476 C0.24 476.12 -0.53 476.24 -1.31 476.36 C-61.53 485.32 -125.46 467.84 -174.21 431.9 C-180.02 427.51 -185.56 422.84 -191 418 C-191.75 417.35 -191.75 417.35 -192.51 416.68 C-211.6 399.93 -227.73 380.26 -240 358 C-240.42 357.25 -240.84 356.51 -241.28 355.74 C-257.37 327.11 -267.69 295.71 -271 263 C-271.14 261.63 -271.14 261.63 -271.28 260.24 C-277.11 197.42 -257.83 135.38 -218.5 86.25 C-213.23 79.96 -207.65 73.95 -202 68 C-200.93 66.87 -200.93 66.87 -199.84 65.71 C-194.62 60.33 -188.88 55.65 -183 51 C-182.03 50.22 -181.07 49.44 -180.07 48.63 C-170.87 41.32 -161.08 35.04 -151 29 C-150.37 28.62 -149.74 28.24 -149.09 27.85 C-124.74 13.48 -96.24 4.65 -68.42 0.37 C-66.3 0.05 -64.19 -0.32 -62.09 -0.68 C-41.72 -3.85 -20.37 -2.61 0 0 Z M-85 55 C-86.76 55.52 -86.76 55.52 -88.55 56.05 C-133.88 70.22 -173.59 101.59 -197 143 C-197.53 143.93 -197.53 143.93 -198.08 144.87 C-207.91 162.09 -214.89 180.6 -219 200 C-219.16 200.77 -219.33 201.54 -219.5 202.34 C-229.15 250.52 -217.71 302.14 -191 343 C-188.15 347.14 -185.15 351.09 -182 355 C-181.59 355.51 -181.17 356.03 -180.75 356.56 C-154.45 389.12 -118.85 412.95 -78 423 C-76.96 423.27 -75.91 423.55 -74.84 423.83 C-26.86 435.44 25.11 425.89 67.12 400.73 C73.38 396.87 79.28 392.62 85 388 C85.51 387.59 86.03 387.17 86.56 386.75 C124.32 356.25 151.34 311.73 157 263 C162.11 210.53 149.71 159.68 116.16 118.47 C83.05 78.64 37.47 53.7 -14.2 48.44 C-38.19 46.38 -61.96 47.92 -85 55 Z " fill="#FEFEFE" transform="translate(512,242)"/>
</svg>
