<?xml version="1.0" encoding="UTF-8"?>
<!-- Generator: https://ezgif.com/png-to-svg -->
<svg version="1.1" xmlns="http://www.w3.org/2000/svg" width="120" height="120">
<path d="M0 0 C0.22 0.49 0.44 0.97 0.67 1.48 C3.79 7.69 7.91 12.57 12.47 17.74 C16.71 22.58 20.48 27.62 24 33 C23.01 30.03 22.02 27.06 21 24 C28.37 27.69 32.49 33.7 35.22 41.37 C39.75 56.71 39.19 72.33 31.88 86.75 C23.76 100.74 12.32 109.91 -3 115 C-18.91 119.18 -34.18 116.82 -48.67 109.07 C-61.93 100.81 -70.92 88.4 -74.68 73.25 C-77.75 58.02 -75.34 43.27 -67 30 C-63.06 24.68 -59.28 20.35 -53 18 C-52.34 22.29 -51.68 26.58 -51 31 C-49.11 29.33 -49.11 29.33 -47.19 27.62 C-44.84 25.55 -42.62 23.74 -40 22 C-39.01 22.33 -38.02 22.66 -37 23 C-37 26.96 -37 30.92 -37 35 C-34.09 34.05 -31.24 33.11 -28.44 31.88 C-25.8 30.93 -23.78 30.84 -21 31 C-20.96 29.76 -20.92 28.52 -20.88 27.25 C-19.92 18.57 -15.13 10.13 -9 4 C-3.74 0 -3.74 0 0 0 Z " fill="#FD4F3B" transform="translate(79,0)"/>
<path d="M0 0 C0.22 0.49 0.44 0.97 0.67 1.48 C3.79 7.69 7.91 12.57 12.47 17.74 C16.71 22.58 20.48 27.62 24 33 C23.01 30.03 22.02 27.06 21 24 C28.37 27.69 32.49 33.7 35.22 41.37 C38.25 51.6 39.28 62.49 37 73 C34.04 74.48 31.26 74.06 28 74 C27.88 74.8 27.75 75.61 27.62 76.44 C27.42 77.28 27.21 78.13 27 79 C26.01 79.5 26.01 79.5 25 80 C22.84 79 22.84 79 20.38 77.56 C19.56 77.09 18.74 76.62 17.9 76.13 C17.27 75.76 16.65 75.38 16 75 C16.61 71.57 17.89 69.57 20.06 66.88 C22.39 64.25 22.39 64.25 23 61 C22.01 60.51 22.01 60.51 21 60 C21 59.34 21 58.68 21 58 C18.69 57.34 16.38 56.68 14 56 C14.33 56.99 14.66 57.98 15 59 C15.12 60.83 15.18 62.67 15.19 64.5 C15.2 65.46 15.22 66.42 15.23 67.41 C15 70 15 70 13 73 C10.03 72.34 7.06 71.68 4 71 C3.99 70.11 3.97 69.21 3.96 68.29 C3.58 58.7 2.07 50.92 -4.81 43.88 C-5.53 43.26 -6.26 42.64 -7 42 C-5.54 42.14 -4.08 42.29 -2.62 42.44 C-1.81 42.52 -1 42.6 -0.16 42.68 C2 43 2 43 4 44 C-1.11 36.67 -7.95 33.45 -16.62 31.69 C-18.08 31.44 -19.54 31.21 -21 31 C-20.66 20.72 -16.29 11.29 -9 4 C-3.74 0 -3.74 0 0 0 Z " fill="#FED242" transform="translate(79,0)"/>
<path d="M0 0 C4.93 2.23 9.16 5.37 12.75 9.44 C12.75 10.1 12.75 10.76 12.75 11.44 C9.45 11.11 6.15 10.78 2.75 10.44 C4.11 11.4 4.11 11.4 5.5 12.38 C10.17 16.33 12.33 21.15 13.1 27.18 C13.35 35.14 12.01 41.26 6.62 47.25 C0.53 52.84 -6.52 54.05 -14.61 53.78 C-22.13 52.8 -27.63 48.24 -32.25 42.44 C-34.33 39.14 -35.23 36.26 -35.31 32.31 C-33.87 28.4 -31.94 26.25 -28.25 24.44 C-25.19 23.79 -22.14 23.37 -19.04 22.96 C-15.53 22.3 -13.6 21.11 -11.25 18.44 C-10.92 17.45 -10.59 16.46 -10.25 15.44 C-11.05 15.23 -11.86 15.02 -12.69 14.81 C-17.8 12.84 -23.7 10.13 -26.52 5.24 C-26.88 4.35 -26.88 4.35 -27.25 3.44 C-18.31 -2.1 -10.07 -3.55 0 0 Z " fill="#B23CDC" transform="translate(70.25,32.5625)"/>
<path d="M0 0 C0.33 0 0.66 0 1 0 C1.22 1.03 1.44 2.05 1.66 3.11 C4.07 16.27 4.07 16.27 11 27 C16.19 28.55 21.65 28.27 27 28 C27 28.99 27 29.98 27 31 C28 31.07 28 31.07 29.01 31.15 C37.78 31.89 37.78 31.89 42 34 C42 34.66 42 35.32 42 36 C45.31 36.48 48.62 36.96 51.94 37.44 C52.86 37.57 53.79 37.71 54.74 37.85 C59.2 38.49 63.65 39.08 68.13 39.54 C72 40 72 40 73 41 C75.47 41.15 77.9 41.23 80.38 41.25 C81.06 41.27 81.75 41.29 82.45 41.31 C86.46 41.41 86.46 41.41 89.82 39.47 C90.21 38.99 90.6 38.5 91 38 C94.34 38.24 95.61 38.61 98 41 C97.85 43.85 97.09 44.91 95.1 46.96 C82.88 56.7 67.88 62.69 52 61 C35.46 58.78 21.16 51.66 10.91 38.27 C3.01 26.42 -0.47 14.2 0 0 Z " fill="#E41169" transform="translate(3,56)"/>
<path d="M0 0 C0.66 4.29 1.32 8.58 2 13 C3.89 11.33 3.89 11.33 5.81 9.62 C8.16 7.55 10.38 5.74 13 4 C13.99 4.33 14.98 4.66 16 5 C15.94 5.8 15.88 6.59 15.82 7.41 C15.53 14.1 15.53 14.1 17.69 20.31 C22.12 24.65 28.51 27.28 34 30 C33.43 32.74 33.05 33.94 31.19 36.12 C27.86 38.08 25.77 38.47 22 39 C15.66 39.86 15.66 39.86 11 44 C10.04 46.97 9.44 49.91 9 53 C5.87 49.87 5.95 47.03 5.94 42.75 C5.96 41.51 5.98 40.27 6 39 C4.97 38.94 3.94 38.88 2.88 38.81 C-1.88 37.81 -3.54 36.3 -7 33 C-6.67 32.01 -6.34 31.02 -6 30 C-4.02 29.67 -2.04 29.34 0 29 C0 28.01 0 27.02 0 26 C-0.74 25.77 -1.49 25.53 -2.25 25.29 C-7.11 23.01 -9.68 18.72 -12 14 C-11.86 9.95 -11.14 8.19 -8.35 5.27 C-2.43 0 -2.43 0 0 0 Z " fill="#FEA524" transform="translate(26,18)"/>
<path d="M0 0 C1.89 0.32 1.89 0.32 4 1 C7.83 7.3 7.95 14.09 6.57 21.24 C4.65 27.38 0.61 32.08 -5.07 35.1 C-11.45 37.55 -18.62 38.29 -25.23 36.34 C-31.52 33.52 -36.95 28.67 -40 22.44 C-41.09 18.7 -41.18 16.69 -40 13 C-38.81 11.06 -38.81 11.06 -37 10 C-33.81 10.31 -33.81 10.31 -31 11 C-30.67 12.65 -30.34 14.3 -30 16 C-29.34 16 -28.68 16 -28 16 C-28 16.66 -28 17.32 -28 18 C-27.06 18.09 -27.06 18.09 -26.1 18.18 C-25.28 18.27 -24.47 18.35 -23.62 18.44 C-22.81 18.52 -22 18.6 -21.16 18.68 C-19 19 -19 19 -17 20 C-17 19.34 -17 18.68 -17 18 C-15.02 18.33 -13.04 18.66 -11 19 C-11 19.66 -11 20.32 -11 21 C-9.02 20.67 -7.04 20.34 -5 20 C-4.81 18.64 -4.81 18.64 -4.62 17.25 C-4 14 -4 14 -3.03 12.12 C-1.84 9.68 -1.37 7.42 -0.88 4.75 C-0.71 3.86 -0.54 2.97 -0.37 2.05 C-0.19 1.03 -0.19 1.03 0 0 Z " fill="#603BB4" transform="translate(76,49)"/>
<path d="M0 0 C4.95 0 9.9 0 15 0 C15 0.99 15 1.98 15 3 C16 3.07 16 3.07 17.01 3.15 C25.78 3.89 25.78 3.89 30 6 C30 6.66 30 7.32 30 8 C33.31 8.48 36.62 8.96 39.94 9.44 C40.86 9.57 41.79 9.71 42.74 9.85 C47.2 10.49 51.65 11.08 56.13 11.54 C60 12 60 12 61 13 C63.47 13.15 65.9 13.23 68.38 13.25 C69.06 13.27 69.75 13.29 70.45 13.31 C74.46 13.41 74.46 13.41 77.82 11.47 C78.21 10.99 78.6 10.5 79 10 C82.34 10.24 83.61 10.61 86 13 C85.68 16.29 84.45 17.87 82 20 C80 19 80 19 78.19 17.38 C76.1 15.75 76.1 15.75 73.71 16.26 C70.78 17.06 68.24 18.18 65.5 19.5 C54.56 24.79 39.01 25.04 27.44 21.44 C17.16 17.25 8.07 11.67 1 3 C0.67 2.01 0.34 1.02 0 0 Z " fill="#F72E56" transform="translate(15,84)"/>
<path d="M0 0 C2.31 0.66 4.62 1.32 7 2 C7 2.66 7 3.32 7 4 C7.99 4.33 8.98 4.66 10 5 C8.95 8.24 7.64 10.58 5.44 13.12 C2.86 15.81 2.86 15.81 2 19 C2.72 19.29 3.44 19.58 4.19 19.88 C6.79 20.92 9.4 21.96 12 23 C12.66 21.35 13.32 19.7 14 18 C17.96 17.5 17.96 17.5 22 17 C20.77 24.51 18.19 30.62 14 37 C13.01 37.5 13.01 37.5 12 38 C11.5 36.02 11.5 36.02 11 34 C10.34 34 9.68 34 9 34 C8.67 33.34 8.34 32.68 8 32 C5.03 34.47 5.03 34.47 2 37 C1.38 36.59 0.77 36.18 0.13 35.76 C-6.96 31.25 -13.46 28.45 -22 29 C-22 28.34 -22 27.68 -22 27 C-20.77 25.92 -19.49 24.88 -18.19 23.88 C-13.91 20.28 -12.5 17.33 -11 12 C-10.67 12.99 -10.34 13.98 -10 15 C-7.03 15.33 -4.06 15.66 -1 16 C0.5 13 0.09 10.21 0.06 6.88 C0.05 5.59 0.04 4.31 0.04 2.99 C0.02 2 0.01 1.02 0 0 Z " fill="#FC8442" transform="translate(93,56)"/>
<path d="M0 0 C2.64 0.66 5.28 1.32 8 2 C8 1.34 8 0.68 8 0 C8.66 0 9.32 0 10 0 C11.03 1.31 12.03 2.65 13 4 C13.33 4 13.66 4 14 4 C14.49 10.58 13.63 16.34 10 22 C6.75 23.12 6.75 23.12 4 23 C4 22.34 4 21.68 4 21 C2.02 20.67 0.04 20.34 -2 20 C-2 20.66 -2 21.32 -2 22 C-3.46 21.86 -4.92 21.71 -6.38 21.56 C-7.59 21.44 -7.59 21.44 -8.84 21.32 C-11 21 -11 21 -13 20 C-13 19.34 -13 18.68 -13 18 C-13.66 18 -14.32 18 -15 18 C-15.33 16.35 -15.66 14.7 -16 13 C-17.65 12.67 -19.3 12.34 -21 12 C-18.41 9.41 -16.85 9.6 -13.25 9.19 C-7.6 8.33 -4.82 7.23 -1 3 C-0.67 2.01 -0.34 1.02 0 0 Z " fill="#964CEE" transform="translate(61,47)"/>
<path d="M0 0 C1.89 0.32 1.89 0.32 4 1 C7.84 7.32 7.93 14.11 6.57 21.27 C4.88 26.74 1.55 29.71 -3 33 C-3.66 30.69 -4.32 28.38 -5 26 C-4.34 26 -3.68 26 -3 26 C-3.33 24.68 -3.66 23.36 -4 22 C-4.66 22 -5.32 22 -6 22 C-5.57 20.78 -5.13 19.57 -4.69 18.31 C-2.68 12.32 -1.35 6.17 0 0 Z " fill="#8E2FCB" transform="translate(76,49)"/>
<path d="M0 0 C1.39 0.34 1.39 0.34 2.81 0.69 C3.14 2.34 3.47 3.99 3.81 5.69 C4.47 5.69 5.13 5.69 5.81 5.69 C5.81 6.35 5.81 7.01 5.81 7.69 C6.44 7.75 7.07 7.81 7.71 7.87 C8.53 7.95 9.35 8.04 10.19 8.12 C11 8.21 11.81 8.29 12.65 8.37 C14.81 8.69 14.81 8.69 16.81 9.69 C16.81 9.03 16.81 8.37 16.81 7.69 C19.78 8.18 19.78 8.18 22.81 8.69 C22.81 9.35 22.81 10.01 22.81 10.69 C24.46 10.36 26.11 10.03 27.81 9.69 C27.81 10.35 27.81 11.01 27.81 11.69 C28.47 11.69 29.13 11.69 29.81 11.69 C29.06 13.62 29.06 13.62 27.81 15.69 C25.69 16.44 25.69 16.44 23.81 16.69 C23.81 16.03 23.81 15.37 23.81 14.69 C22.89 14.96 22.89 14.96 21.94 15.23 C15.32 16.89 11.03 16.48 4.81 13.69 C4.81 13.03 4.81 12.37 4.81 11.69 C3.82 11.36 2.83 11.03 1.81 10.69 C1.81 10.03 1.81 9.37 1.81 8.69 C1.23 8.63 0.66 8.56 0.06 8.5 C-3.07 7.37 -4.28 5.35 -6.19 2.69 C-4.15 -0.14 -3.59 -0.35 0 0 Z " fill="#6751D3" transform="translate(42.1875,59.3125)"/>
<path d="M0 0 C3.06 2.56 3.06 2.56 5 5 C5 5.66 5 6.32 5 7 C1.95 7.98 0.05 7.98 -3 7 C-3 7.66 -3 8.32 -3 9 C-4.46 8.86 -5.92 8.71 -7.38 8.56 C-8.59 8.44 -8.59 8.44 -9.84 8.32 C-12 8 -12 8 -14 7 C-14 6.34 -14 5.68 -14 5 C-14.66 5 -15.32 5 -16 5 C-16.33 3.35 -16.66 1.7 -17 0 C-17.66 0 -18.32 0 -19 0 C-19 -0.66 -19 -1.32 -19 -2 C-12.39 -4.2 -6.16 -2.92 0 0 Z " fill="#765EEE" transform="translate(62,60)"/>
<path d="M0 0 C0.66 0.33 1.32 0.66 2 1 C2.38 7.11 2.26 12.64 -1 18 C-3.16 20.26 -5.47 22.17 -8 24 C-8.66 21.69 -9.32 19.38 -10 17 C-9.24 16.42 -8.47 15.84 -7.69 15.25 C-2.29 10.73 -1.23 6.76 0 0 Z " fill="#8023B4" transform="translate(81,58)"/>
</svg>
